<?xml version="1.0" standalone="no"?>
<!DOCTYPE svg PUBLIC "-//W3C//DTD SVG 20010904//EN"
 "http://www.w3.org/TR/2001/REC-SVG-20010904/DTD/svg10.dtd">
<svg version="1.0" xmlns="http://www.w3.org/2000/svg"
 width="181.000000pt" height="63.000000pt" viewBox="0 0 181.000000 63.000000"
 preserveAspectRatio="xMidYMid meet">

<g transform="translate(0.000000,63.000000) scale(0.100000,-0.100000)"
fill="#000000" stroke="none">
<path d="M0 315 l0 -315 905 0 905 0 0 315 0 315 -905 0 -905 0 0 -315z m460
15 c0 -49 1 -50 30 -50 23 0 30 -4 30 -20 0 -18 -7 -20 -55 -20 l-55 0 0 70
c0 68 1 70 25 70 23 0 25 -3 25 -50z m193 18 c23 -31 18 -67 -14 -99 -40 -40
-119 -1 -119 59 0 68 92 96 133 40z m75 5 c13 -16 20 -22 17 -15 -12 24 16 42
66 42 45 0 49 -2 55 -27 10 -48 11 -49 19 -10 6 30 12 37 30 37 17 0 24 -8 30
-32 l7 -33 9 33 c8 25 15 32 35 32 17 0 24 -5 21 -12 -2 -7 -12 -39 -21 -70
-14 -50 -20 -58 -41 -58 -20 0 -25 6 -31 38 l-8 37 -9 -37 c-7 -31 -14 -38
-32 -38 -20 0 -27 9 -41 58 -10 31 -19 59 -21 62 -4 4 -36 -29 -63 -65 -14
-18 -14 -19 1 -7 15 11 20 9 39 -15 l22 -28 -28 -3 c-17 -2 -32 2 -40 12 -10
14 -13 15 -24 1 -7 -8 -26 -15 -42 -15 l-30 0 26 34 26 35 -25 29 c-31 38 -31
42 2 42 17 0 36 -10 51 -27z m442 -42 l0 -68 -47 -6 c-59 -6 -91 5 -103 38
-14 37 -13 49 11 79 18 23 28 26 80 26 l59 0 0 -69z m103 52 c-6 -17 -5 -17
14 0 46 40 123 7 123 -53 0 -36 -39 -80 -70 -80 -34 0 -83 55 -76 84 5 20 3
23 -14 19 -16 -4 -20 -14 -20 -49 0 -40 -2 -44 -25 -44 -24 0 -25 2 -25 70 l0
70 50 0 c43 0 49 -2 43 -17z"/>
<path d="M588 333 c7 -3 16 -2 19 1 4 3 -2 6 -13 5 -11 0 -14 -3 -6 -6z"/>
<path d="M578 283 c6 -2 18 -2 25 0 6 3 1 5 -13 5 -14 0 -19 -2 -12 -5z"/>
<path d="M1071 326 c-15 -18 -3 -46 20 -46 25 0 35 26 19 45 -15 19 -24 19
-39 1z"/>
<path d="M1328 333 c6 -2 18 -2 25 0 6 3 1 5 -13 5 -14 0 -19 -2 -12 -5z"/>
<path d="M1328 283 c6 -2 18 -2 25 0 6 3 1 5 -13 5 -14 0 -19 -2 -12 -5z"/>
</g>
</svg>
